<svg xmlns="http://www.w3.org/2000/svg" width="20.351" height="20.352" viewBox="0 0 20.351 20.352">
  <path id="Icon_awesome-sun" data-name="Icon awesome-sun" d="M10.176,6.36a3.816,3.816,0,1,0,3.816,3.816A3.822,3.822,0,0,0,10.176,6.36Zm9.795,3.2L16.206,7.68l1.332-3.991a.687.687,0,0,0-.871-.871L12.677,4.15,10.792.382a.688.688,0,0,0-1.232,0L7.68,4.146,3.685,2.814a.687.687,0,0,0-.871.871L4.146,7.676.382,9.56a.688.688,0,0,0,0,1.232l3.764,1.88L2.814,16.668a.687.687,0,0,0,.871.871l3.991-1.332,1.88,3.764a.688.688,0,0,0,1.232,0l1.88-3.764,3.991,1.332a.687.687,0,0,0,.871-.871L16.2,12.677l3.764-1.88a.689.689,0,0,0,.008-1.236Zm-6.2,4.214a5.088,5.088,0,1,1,0-7.195A5.093,5.093,0,0,1,13.774,13.774Z" fill="#ff982a"/>
</svg>
